<svg width="1124" height="322" viewBox="0 0 1124 322" fill="none" xmlns="http://www.w3.org/2000/svg">
<path d="M289.256 147.254L265.345 123.38H121L142.988 145.328H258.695L217.302 186.631L197.609 166.981H164.716L199.649 201.831H232.542L217.346 186.676H250.15L289.256 147.254Z" fill="white"/>
<path d="M1002.71 162.312C1002.71 174.923 998.976 184.635 991.511 191.448C984.119 198.188 972.812 201.558 957.592 201.558H925.412V123.066H955.961C964.658 123.066 971.979 123.935 977.922 125.675C983.937 127.414 988.757 129.951 992.381 133.285C996.077 136.546 998.723 140.641 1000.32 145.57C1001.91 150.426 1002.71 156.006 1002.71 162.312ZM990.75 162.312C990.75 157.239 990.134 152.818 988.902 149.049C987.67 145.207 985.641 142.055 982.814 139.59C980.06 137.054 976.436 135.169 971.942 133.937C967.449 132.633 961.904 131.98 955.309 131.98H936.719V192.644H958.027C964.477 192.644 969.804 191.774 974.008 190.034C978.284 188.295 981.654 186.012 984.119 183.185C986.583 180.359 988.286 177.134 989.228 173.51C990.243 169.886 990.75 166.153 990.75 162.312Z" fill="white"/>
<path d="M857.836 201.558V123.066H869.142V192.644H914.368V201.558H857.836Z" fill="white"/>
<path d="M845.402 162.312C845.402 167.168 844.641 172.06 843.119 176.989C841.597 181.844 839.097 186.266 835.618 190.252C832.139 194.166 827.573 197.391 821.919 199.928C816.339 202.392 809.453 203.624 801.264 203.624C792.711 203.624 785.608 202.392 779.955 199.928C774.302 197.391 769.772 194.166 766.366 190.252C763.032 186.266 760.64 181.844 759.191 176.989C757.814 172.06 757.125 167.168 757.125 162.312C757.125 157.456 757.886 152.564 759.408 147.635C761.003 142.707 763.539 138.286 767.018 134.372C770.57 130.386 775.136 127.161 780.716 124.696C786.37 122.232 793.219 121 801.264 121C809.526 121 816.447 122.232 822.028 124.696C827.681 127.088 832.211 130.241 835.618 134.155C839.097 138.068 841.597 142.489 843.119 147.418C844.641 152.346 845.402 157.311 845.402 162.312ZM833.443 162.312C833.443 157.094 832.646 152.455 831.052 148.396C829.53 144.338 827.355 140.967 824.529 138.286C821.702 135.532 818.296 133.466 814.309 132.089C810.396 130.639 806.047 129.915 801.264 129.915C796.48 129.915 792.095 130.676 788.109 132.198C784.195 133.647 780.825 135.785 777.998 138.612C775.172 141.439 772.961 144.845 771.367 148.831C769.845 152.817 769.084 157.311 769.084 162.312C769.084 167.313 769.845 171.843 771.367 175.901C772.889 179.888 775.027 183.294 777.781 186.121C780.608 188.875 783.978 191.013 787.892 192.535C791.878 193.984 796.335 194.709 801.264 194.709C806.119 194.709 810.541 193.948 814.527 192.426C818.513 190.832 821.883 188.621 824.637 185.794C827.464 182.968 829.638 179.561 831.16 175.575C832.682 171.589 833.443 167.168 833.443 162.312Z" fill="white"/>
<path d="M703.084 131.98V157.637H745.374V166.552H703.084V201.558H691.777V123.066H747.548V131.98H703.084Z" fill="white"/>
<path d="M660.084 201.558V123.066H671.39V201.558H660.084Z" fill="white"/>
<path d="M623.725 201.558L575.238 133.829V201.558H564.584V123.066H580.456L628.944 190.904V123.066H639.598V201.558H623.725Z" fill="white"/>
<path d="M541.866 201.558L531.756 181.12H483.595L473.484 201.558H460.873L501.207 123.066H514.47L554.803 201.558H541.866ZM507.621 132.415L488.052 172.205H527.298L507.621 132.415Z" fill="white"/>
<path d="M439.805 201.558V130.893L404.581 201.558H391.753L356.529 130.893V201.558H345.875V123.066H364.248L398.602 192.209L432.739 123.066H451.112V201.558H439.805Z" fill="white"/>
</svg>
