<svg width="1124" height="367" viewBox="0 0 1124 367" fill="none" xmlns="http://www.w3.org/2000/svg">
<path d="M481.155 224.023V177.012L460.51 224.023H449.136L428.603 177.071V224.023H412.901V142.36H431.252L455.044 196.163L478.836 142.36H497.186V224.023H481.155Z" fill="#121213"/>
<path fill-rule="evenodd" clip-rule="evenodd" d="M572.204 224.023L564.426 204.108H535.135L527.357 224.023H510.547L541.616 142.36H558.165L589.233 224.023H572.204ZM549.726 164.695L540.603 188.502H558.849L549.726 164.695Z" fill="#121213"/>
<path d="M653.449 224.023L618.446 173.641V224.023H602.525V142.36H617.361L651.826 191.512V142.36H667.637V224.023H653.449Z" fill="#121213"/>
<path d="M690.436 224.023V142.36H706.686V224.023H690.436Z" fill="#121213"/>
<path d="M729.453 224.023V142.36H783.171V157.857H745.703V176.749H779.008V192.355H745.703V224.023H729.453Z" fill="#121213"/>
<path fill-rule="evenodd" clip-rule="evenodd" d="M798.386 209.091L798.38 209.063C797.196 203.733 796.656 195.024 796.656 183.192C796.656 171.363 797.196 162.683 798.382 157.419L798.386 157.401L798.39 157.383C799.768 151.566 803.041 147.205 808.251 144.754C813.155 142.446 820.911 141.489 830.965 141.489C840.944 141.489 848.658 142.446 853.56 144.749C858.839 147.195 862.13 151.557 863.435 157.402C864.701 162.693 865.274 171.384 865.274 183.192C865.274 195.014 864.699 203.738 863.434 209.093C862.124 214.883 858.822 219.196 853.56 221.634C848.658 223.937 840.944 224.894 830.965 224.894C820.911 224.894 813.155 223.937 808.251 221.629C803.059 219.187 799.777 214.878 798.393 209.12L798.386 209.091ZM830.965 209.397C838.469 209.397 842.934 208.898 844.926 208.183C846.039 207.784 847.23 206.716 847.893 203.6C848.613 200.223 849.024 193.523 849.024 183.192C849.024 172.86 848.613 166.16 847.893 162.783C847.23 159.668 846.039 158.599 844.926 158.2C842.934 157.485 838.469 156.987 830.965 156.987C823.492 156.987 818.971 157.48 816.882 158.205C815.773 158.607 814.588 159.68 813.927 162.783C813.208 166.16 812.796 172.86 812.796 183.192C812.796 193.523 813.208 200.223 813.927 203.6C814.588 206.704 815.773 207.776 816.882 208.179C818.972 208.903 823.492 209.397 830.965 209.397Z" fill="#121213"/>
<path d="M885.482 142.36H901.732V208.199H936.9V224.023H885.482V142.36Z" fill="#121213"/>
<path fill-rule="evenodd" clip-rule="evenodd" d="M952.102 142.36H979.509C989.973 142.36 997.975 143.278 1002.99 145.468C1008.35 147.731 1011.77 151.934 1013.17 157.687C1014.45 162.909 1015.02 171.508 1015.02 183.192C1015.02 194.875 1014.45 203.474 1013.17 208.696C1011.77 214.45 1008.36 218.677 1003.01 221.015L1002.99 221.025L1002.97 221.034C997.973 223.137 989.984 224.023 979.509 224.023H952.102V142.36ZM997.561 163.448L997.553 163.417C996.895 160.69 995.672 159.59 994.108 159.136L994.06 159.121L994.012 159.106C991.679 158.353 986.51 157.857 977.975 157.857H968.352V208.526H977.975C986.552 208.526 991.787 208.073 994.17 207.371C995.802 206.849 997.016 205.687 997.664 203.071C998.432 199.888 998.883 193.384 998.883 183.192C998.883 173.067 998.393 166.628 997.569 163.479L997.561 163.448Z" fill="#121213"/>
<path d="M108 133.009L142.116 167.125L263.546 167.118L230.011 200.653L213.681 184.323H160.37L209.047 233H262.358L245.149 215.791H268.184L316.86 167.116H316.861V167.115H316.86L282.745 133L108 133.009Z" fill="#121213"/>
</svg>
