<svg width="1124" height="322" viewBox="0 0 1124 322" fill="none" xmlns="http://www.w3.org/2000/svg">
<path d="M289.256 147.254L265.345 123.38H121L142.988 145.328H258.695L217.302 186.631L197.609 166.981H164.716L199.649 201.831H232.542L217.346 186.676H250.15L289.256 147.254Z" fill="black"/>
<path d="M1002.71 162.312C1002.71 174.923 998.977 184.635 991.512 191.448C984.12 198.188 972.813 201.558 957.593 201.558H925.413V123.065H955.962C964.659 123.065 971.98 123.935 977.923 125.675C983.938 127.414 988.758 129.951 992.382 133.285C996.078 136.546 998.724 140.641 1000.32 145.57C1001.91 150.426 1002.71 156.006 1002.71 162.312ZM990.751 162.312C990.751 157.238 990.135 152.817 988.903 149.048C987.671 145.207 985.642 142.054 982.815 139.59C980.061 137.054 976.437 135.169 971.943 133.937C967.45 132.632 961.905 131.98 955.31 131.98H936.719V192.643H958.028C964.478 192.643 969.805 191.774 974.009 190.034C978.285 188.295 981.655 186.012 984.119 183.185C986.584 180.359 988.287 177.133 989.229 173.509C990.244 169.886 990.751 166.153 990.751 162.312Z" fill="black"/>
<path d="M857.837 201.558V123.065H869.143V192.643H914.369V201.558H857.837Z" fill="black"/>
<path d="M845.403 162.312C845.403 167.168 844.642 172.06 843.12 176.989C841.598 181.844 839.098 186.266 835.619 190.252C832.14 194.166 827.574 197.391 821.92 199.928C816.34 202.392 809.454 203.624 801.264 203.624C792.712 203.624 785.609 202.392 779.956 199.928C774.303 197.391 769.773 194.166 766.367 190.252C763.033 186.266 760.641 181.844 759.192 176.989C757.815 172.06 757.126 167.168 757.126 162.312C757.126 157.456 757.887 152.564 759.409 147.635C761.004 142.707 763.54 138.286 767.019 134.372C770.57 130.386 775.137 127.161 780.717 124.696C786.37 122.232 793.22 121 801.264 121C809.527 121 816.448 122.232 822.029 124.696C827.682 127.088 832.212 130.241 835.619 134.155C839.098 138.068 841.598 142.489 843.12 147.418C844.642 152.346 845.403 157.311 845.403 162.312ZM833.444 162.312C833.444 157.094 832.647 152.455 831.053 148.396C829.531 144.338 827.356 140.967 824.53 138.286C821.703 135.532 818.297 133.466 814.31 132.089C810.397 130.639 806.048 129.915 801.264 129.915C796.481 129.915 792.096 130.676 788.11 132.198C784.196 133.647 780.826 135.785 777.999 138.612C775.173 141.439 772.962 144.845 771.368 148.831C769.846 152.817 769.085 157.311 769.085 162.312C769.085 167.313 769.846 171.843 771.368 175.901C772.89 179.888 775.028 183.294 777.782 186.121C780.609 188.875 783.979 191.013 787.892 192.535C791.879 193.984 796.336 194.709 801.264 194.709C806.12 194.709 810.542 193.948 814.528 192.426C818.514 190.832 821.884 188.621 824.638 185.794C827.465 182.968 829.639 179.561 831.161 175.575C832.683 171.589 833.444 167.168 833.444 162.312Z" fill="black"/>
<path d="M703.087 131.98V157.637H745.377V166.552H703.087V201.558H691.78V123.065H747.551V131.98H703.087Z" fill="black"/>
<path d="M660.085 201.558V123.065H671.391V201.558H660.085Z" fill="black"/>
<path d="M623.727 201.558L575.24 133.828V201.558H564.586V123.065H580.458L628.946 190.904V123.065H639.6V201.558H623.727Z" fill="black"/>
<path d="M541.867 201.558L531.757 181.12H483.596L473.485 201.558H460.874L501.207 123.065H514.471L554.804 201.558H541.867ZM507.622 132.415L488.053 172.205H527.299L507.622 132.415Z" fill="black"/>
<path d="M439.807 201.558V130.893L404.583 201.558H391.755L356.531 130.893V201.558H345.877V123.065H364.25L398.604 192.209L432.741 123.065H451.114V201.558H439.807Z" fill="black"/>
</svg>
